# xmcd
#
# Track frame offsets:
#	150
#	14656
#	36879
#	60766
#	82955
#	99181
#	114159
#	132467
#	151911
#	172238
#
# Disc length: 2515 seconds
#
# Revision: 0
# Processed by: cddbd v1.5.2PL0 Copyright (c) Steve Scherf et al.
# Submitted via: audiograbber 1.83.01
#
DISCID=7209d10a
DTITLE=Kora - Ping Pong
DYEAR=1900
DGENRE=Rock and Roll
TTITLE0=Ping Pong
TTITLE1=Strefa Ciszy
TTITLE2=Przepis Na Szczescie
TTITLE3=Radiowa Fala
TTITLE4=Nie Jestem Biala I Nie Jestem Czarna
TTITLE5=Spojrz W Oczy Chwili
TTITLE6=Nigdy Nie Zamkne Drzwi Przed Toba
TTITLE7=Czarna Zmija
TTITLE8=Jak Narkotyk
TTITLE9=Jedno Slowo Wszystko Zmienia
EXTD=
EXTT0=
EXTT1=
EXTT2=
EXTT3=
EXTT4=
EXTT5=
EXTT6=
EXTT7=
EXTT8=
EXTT9=
PLAYORDER=
